<svg xmlns="http://www.w3.org/2000/svg" viewBox="0 0 512 512" width="512" height="512">
  <defs>
    <linearGradient id="bgGrad" x1="0%" y1="0%" x2="100%" y2="100%">
      <stop offset="0%" stop-color="#1e3a8a" />
      <stop offset="100%" stop-color="#3b82f6" />
    </linearGradient>
  </defs>

  <rect width="512" height="512" rx="112" fill="url(#bgGrad)" />

  <line x1="256" y1="240" x2="256" y2="340" stroke="#38bdf8" stroke-width="12" stroke-linecap="round" />
  <path d="M 256 290 L 120 290 L 120 340" fill="none" stroke="#38bdf8" stroke-width="12" stroke-linejoin="round" stroke-linecap="round" />
  <path d="M 256 290 L 392 290 L 392 340" fill="none" stroke="#38bdf8" stroke-width="12" stroke-linejoin="round" stroke-linecap="round" />

  <rect x="176" y="80" width="160" height="160" rx="16" fill="#1e293b" stroke="#ffffff" stroke-width="14" />
  
  <line x1="206" y1="116" x2="270" y2="116" stroke="#ffffff" stroke-width="12" stroke-linecap="round" />
  <circle cx="296" cy="116" r="8" fill="#38bdf8" />
  
  <line x1="206" y1="160" x2="270" y2="160" stroke="#ffffff" stroke-width="12" stroke-linecap="round" />
  <circle cx="296" cy="160" r="8" fill="#38bdf8" />
  
  <line x1="206" y1="204" x2="270" y2="204" stroke="#ffffff" stroke-width="12" stroke-linecap="round" />
  <circle cx="296" cy="204" r="8" fill="#38bdf8" />

  <rect x="75" y="340" width="90" height="60" rx="8" fill="#1e293b" stroke="#ffffff" stroke-width="12" />
  <line x1="105" y1="370" x2="135" y2="370" stroke="#38bdf8" stroke-width="8" stroke-linecap="round" />
  <path d="M 120 400 L 120 420 M 96 420 L 144 420" fill="none" stroke="#ffffff" stroke-width="12" stroke-linecap="round" stroke-linejoin="round" />

  <rect x="211" y="340" width="90" height="60" rx="8" fill="#1e293b" stroke="#ffffff" stroke-width="12" />
  <line x1="241" y1="370" x2="271" y2="370" stroke="#38bdf8" stroke-width="8" stroke-linecap="round" />
  <path d="M 256 400 L 256 420 M 232 420 L 280 420" fill="none" stroke="#ffffff" stroke-width="12" stroke-linecap="round" stroke-linejoin="round" />

  <rect x="347" y="340" width="90" height="60" rx="8" fill="#1e293b" stroke="#ffffff" stroke-width="12" />
  <line x1="377" y1="370" x2="407" y2="370" stroke="#38bdf8" stroke-width="8" stroke-linecap="round" />
  <path d="M 392 400 L 392 420 M 368 420 L 416 420" fill="none" stroke="#ffffff" stroke-width="12" stroke-linecap="round" stroke-linejoin="round" />
</svg>